<svg xmlns="http://www.w3.org/2000/svg" width="1200" height="675" viewBox="0 0 1200 675" role="img" aria-labelledby="t d"><title id="t">Airport Analytics Dashboard preview</title><desc id="d">Dark executive dashboard with airport KPIs and charts</desc><defs><linearGradient id="g" x1="0" y1="0" x2="1" y2="1"><stop stop-color="#07111f"/><stop offset="1" stop-color="#102b4b"/></linearGradient><linearGradient id="b"><stop stop-color="#22d3ee"/><stop offset="1" stop-color="#3b82f6"/></linearGradient></defs><rect width="1200" height="675" rx="24" fill="url(#g)"/><rect x="0" width="220" height="675" fill="#091525"/><circle cx="44" cy="50" r="22" fill="url(#b)"/><text x="44" y="58" text-anchor="middle" font-size="22">✈</text><text x="78" y="47" fill="#fff" font-family="Arial" font-weight="700" font-size="16">Airport Analytics</text><text x="78" y="64" fill="#8fa5bf" font-family="Arial" font-size="10">OPERATIONS COMMAND</text><g fill="#8fa5bf" font-family="Arial" font-size="13"><text x="32" y="130">Overview</text><text x="32" y="174">Operations</text><text x="32" y="218">Passenger Flow</text><text x="32" y="262">Airlines</text><text x="32" y="306">Insights</text></g><rect x="22" y="101" width="176" height="45" rx="9" fill="#14243a"/><text x="32" y="130" fill="#fff" font-family="Arial" font-size="13">Overview</text><text x="258" y="54" fill="#22d3ee" font-family="Arial" font-size="10" font-weight="700">EXECUTIVE ANALYTICS</text><text x="258" y="86" fill="#fff" font-family="Arial" font-size="27" font-weight="700">Airport Performance Overview</text><g font-family="Arial"><g transform="translate(258 126)"><rect width="140" height="100" rx="12" fill="#0e1c30" stroke="#20314a"/><text x="16" y="30" fill="#8fa5bf" font-size="10">TOTAL FLIGHTS</text><text x="16" y="66" fill="#fff" font-size="25" font-weight="700">1,530</text><text x="16" y="87" fill="#34d399" font-size="9">Flight movements</text></g><g transform="translate(414 126)"><rect width="140" height="100" rx="12" fill="#0e1c30" stroke="#20314a"/><text x="16" y="30" fill="#8fa5bf" font-size="10">PASSENGERS</text><text x="16" y="66" fill="#fff" font-size="25" font-weight="700">248K</text><text x="16" y="87" fill="#34d399" font-size="9">Processed volume</text></g><g transform="translate(570 126)"><rect width="140" height="100" rx="12" fill="#0e1c30" stroke="#20314a"/><text x="16" y="30" fill="#8fa5bf" font-size="10">ON-TIME</text><text x="16" y="66" fill="#fff" font-size="25" font-weight="700">84.7%</text><text x="16" y="87" fill="#34d399" font-size="9">Departure reliability</text></g><g transform="translate(726 126)"><rect width="140" height="100" rx="12" fill="#0e1c30" stroke="#20314a"/><text x="16" y="30" fill="#8fa5bf" font-size="10">AVG DELAY</text><text x="16" y="66" fill="#fff" font-size="25" font-weight="700">12.4m</text><text x="16" y="87" fill="#34d399" font-size="9">Operational KPI</text></g><g transform="translate(882 126)"><rect width="140" height="100" rx="12" fill="#0e1c30" stroke="#20314a"/><text x="16" y="30" fill="#8fa5bf" font-size="10">LOAD FACTOR</text><text x="16" y="66" fill="#fff" font-size="25" font-weight="700">86.3%</text><text x="16" y="87" fill="#34d399" font-size="9">Seat utilization</text></g></g><rect x="258" y="246" width="596" height="260" rx="14" fill="#0e1c30" stroke="#20314a"/><text x="280" y="278" fill="#22d3ee" font-family="Arial" font-size="9">DEMAND TREND</text><text x="280" y="302" fill="#fff" font-family="Arial" font-size="17" font-weight="700">Daily passengers</text><g stroke="#20314a"><path d="M290 342H825M290 390H825M290 438H825"/></g><path d="M290 440 C340 400 370 420 420 374 S510 420 560 350 S650 380 700 320 S780 360 825 296" fill="none" stroke="#22d3ee" stroke-width="4"/><path d="M290 440 C340 400 370 420 420 374 S510 420 560 350 S650 380 700 320 S780 360 825 296 L825 474 L290 474Z" fill="#22d3ee" opacity=".12"/><rect x="872" y="246" width="292" height="260" rx="14" fill="#0e1c30" stroke="#20314a"/><text x="894" y="278" fill="#22d3ee" font-family="Arial" font-size="9">ROOT CAUSE</text><text x="894" y="302" fill="#fff" font-family="Arial" font-size="17" font-weight="700">Delay contribution</text><g fill="url(#b)"><rect x="894" y="336" width="210" height="10" rx="5"/><rect x="894" y="374" width="168" height="10" rx="5"/><rect x="894" y="412" width="122" height="10" rx="5"/><rect x="894" y="450" width="76" height="10" rx="5"/></g><g fill="#8fa5bf" font-family="Arial" font-size="10"><text x="894" y="330">Late aircraft</text><text x="894" y="368">Air traffic</text><text x="894" y="406">Weather</text><text x="894" y="444">Technical</text></g><rect x="258" y="524" width="906" height="112" rx="14" fill="#0e1c30" stroke="#20314a"/><text x="280" y="554" fill="#22d3ee" font-family="Arial" font-size="9">AIRLINE BENCHMARK</text><g fill="#8fa5bf" font-family="Arial" font-size="10"><text x="280" y="583">AIRLINE</text><text x="520" y="583">FLIGHTS</text><text x="665" y="583">PASSENGERS</text><text x="835" y="583">ON-TIME %</text><text x="1000" y="583">AVG DELAY</text></g><path d="M280 594H1140" stroke="#20314a"/><g fill="#fff" font-family="Arial" font-size="12"><text x="280" y="618">Air India</text><text x="520" y="618">309</text><text x="665" y="618">51,284</text><text x="835" y="618" fill="#34d399">87.4%</text><text x="1000" y="618">10.8 min</text></g></svg>
